HIERARCHY
ROOT Hips
{
	OFFSET 0.00000 0.00000 0.00000
	CHANNELS 6 Xposition Yposition Zposition Zrotation Yrotation Xrotation 
	JOINT LHipJoint
	{
		OFFSET 0 0 0
		CHANNELS 3 Zrotation Yrotation Xrotation
		JOINT LeftUpLeg
		{
			OFFSET 1.65412 -1.54119 0.76744
			CHANNELS 3 Zrotation Yrotation Xrotation
			JOINT LeftLeg
			{
				OFFSET 2.19550 -6.03209 0.00000
				CHANNELS 3 Zrotation Yrotation Xrotation
				JOINT LeftFoot
				{
					OFFSET 2.38814 -6.56138 0.00000
					CHANNELS 3 Zrotation Yrotation Xrotation
					JOINT LeftToeBase
					{
						OFFSET 0.17337 -0.47632 1.75875
						CHANNELS 3 Zrotation Yrotation Xrotation
						End Site
						{
							OFFSET 0.00000 -0.00000 0.92050
						}
					}
				}
			}
		}
	}
	JOINT RHipJoint
	{
		OFFSET 0 0 0
		CHANNELS 3 Zrotation Yrotation Xrotation
		JOINT RightUpLeg
		{
			OFFSET -1.40291 -1.54119 0.76744
			CHANNELS 3 Zrotation Yrotation Xrotation
			JOINT RightLeg
			{
				OFFSET -2.22156 -6.10370 0.00000
				CHANNELS 3 Zrotation Yrotation Xrotation
				JOINT RightFoot
				{
					OFFSET -2.46840 -6.78188 0.00000
					CHANNELS 3 Zrotation Yrotation Xrotation
					JOINT RightToeBase
					{
						OFFSET -0.15659 -0.43024 1.84117
						CHANNELS 3 Zrotation Yrotation Xrotation
						End Site
						{
							OFFSET -0.00000 -0.00000 0.95587
						}
					}
				}
			}
		}
	}
	JOINT LowerBack
	{
		OFFSET 0 0 0
		CHANNELS 3 Zrotation Yrotation Xrotation
		JOINT Spine
		{
			OFFSET -0.01936 1.82120 -0.32061
			CHANNELS 3 Zrotation Yrotation Xrotation
			JOINT Spine1
			{
				OFFSET -0.00532 1.85767 -0.00071
				CHANNELS 3 Zrotation Yrotation Xrotation
				JOINT Neck
				{
					OFFSET 0 0 0
					CHANNELS 3 Zrotation Yrotation Xrotation
					JOINT Neck1
					{
						OFFSET -0.10687 1.58194 0.10810
						CHANNELS 3 Zrotation Yrotation Xrotation
						JOINT Head
						{
							OFFSET 0.15346 1.57382 -0.25612
							CHANNELS 3 Zrotation Yrotation Xrotation
							End Site
							{
								OFFSET 0.05334 1.61251 -0.10513
							}
						}
					}
				}
				JOINT LeftShoulder
				{
					OFFSET 0 0 0
					CHANNELS 3 Zrotation Yrotation Xrotation
					JOINT LeftArm
					{
						OFFSET 2.85758 0.89498 -0.01485
						CHANNELS 3 Zrotation Yrotation Xrotation
						JOINT LeftForeArm
						{
							OFFSET 4.79185 -0.00000 -0.00000
							CHANNELS 3 Zrotation Yrotation Xrotation
							JOINT LeftHand
							{
								OFFSET 2.65553 -0.00000 0.00000
								CHANNELS 3 Zrotation Yrotation Xrotation
								JOINT LeftFingerBase
								{
									OFFSET 0 0 0
									CHANNELS 3 Zrotation Yrotation Xrotation
									JOINT LeftHandIndex1
									{
										OFFSET 0.74390 -0.00000 0.00000
										CHANNELS 3 Zrotation Yrotation Xrotation
										End Site
										{
											OFFSET 0.59975 -0.00000 0.00000
										}
									}
								}
								JOINT LThumb
								{
									OFFSET 0 0 0
									CHANNELS 3 Zrotation Yrotation Xrotation
									End Site
									{
										OFFSET 0.60891 -0.00000 0.60891
									}
								}
							}
						}
					}
				}
				JOINT RightShoulder
				{
					OFFSET 0 0 0
					CHANNELS 3 Zrotation Yrotation Xrotation
					JOINT RightArm
					{
						OFFSET -2.93906 0.88031 0.02490
						CHANNELS 3 Zrotation Yrotation Xrotation
						JOINT RightForeArm
						{
							OFFSET -4.77254 -0.00000 -0.00000
							CHANNELS 3 Zrotation Yrotation Xrotation
							JOINT RightHand
							{
								OFFSET -2.75995 -0.00000 -0.00000
								CHANNELS 3 Zrotation Yrotation Xrotation
								JOINT RightFingerBase
								{
									OFFSET 0 0 0
									CHANNELS 3 Zrotation Yrotation Xrotation
									JOINT RightHandIndex1
									{
										OFFSET -0.70162 -0.00000 0.00000
										CHANNELS 3 Zrotation Yrotation Xrotation
										End Site
										{
											OFFSET -0.56566 -0.00000 0.00000
										}
									}
								}
								JOINT RThumb
								{
									OFFSET 0 0 0
									CHANNELS 3 Zrotation Yrotation Xrotation
									End Site
									{
										OFFSET -0.57430 -0.00000 0.57430
									}
								}
							}
						}
					}
				}
			}
		}
	}
}
MOTION
Frames: 5
Frame Time: .0083333
0.3867 15.9043 -1.7971 0 0 0 0 0 0 -21 0 0 0 0 0 0 0 0 0 0 0 0 0 0 21 0 0 0 0 0 0 0 0 0 0 0 0 0 0 0 0 0 0 0 0 0 0 -16 0 0 21 0 0 11 0 0 0 -8 0 0 0 0 0 0 0 0 0 0 0 0 0 0 0 0 0 0 0 0 8 0 0 0 0 0 0 0 0 0 0 0 0 0 0 0 0 0
0.3867 15.9043 -1.7971 -0.6310 -1.7953 16.9112 0.0000 0.0000 0.0000 -10.4456 -15.8735 -32.4681 2.6637 10.1296 29.3976 0.1882 2.1749 -9.2941 0.5982 -4.9513 -13.7697 0.0000 0.0000 0.0000 9.2045 20.7573 -32.8128 -3.1833 -10.9860 32.2328 -0.1530 -6.7642 -12.7275 -0.5439 4.7251 -13.1261 -1.5240 0.8498 31.6212 -0.4041 0.5624 11.0212 0.2379 0.2424 -4.7991 -13.6038 -8.9667 -8.6866 15.6709 -12.2838 10.4886 6.1103 -5.5852 6.4556 0.0000 0.0000 0.0000 -87.1476 -16.6711 47.3293 39.2101 -47.5949 -17.8538 -0.0000 0.0000 -22.8479 14.7941 10.2068 2.6794 -7.1250 0.0000 -0.0000 -10.7388 40.2987 1.2613 0.0000 0.0000 0.0000 83.4891 14.4094 36.5114 -33.0528 43.3706 -13.4583 0.0000 -0.0000 -3.7578 -14.5205 12.0605 -3.0976 7.1250 -0.0000 -0.0000 8.8315 -17.6218 5.8133
0.3869 15.8975 -1.7989 -0.6163 -1.8441 16.9663 0.0000 0.0000 0.0000 -10.4548 -15.7764 -32.6775 2.6960 10.1858 29.5806 0.1921 2.0265 -9.2819 0.5796 -4.8749 -13.5522 0.0000 0.0000 0.0000 9.1395 20.7755 -33.0499 -3.2254 -11.0513 32.4529 -0.1599 -6.6700 -12.7431 -0.5411 4.7130 -13.0918 -1.5745 0.8860 31.5805 -0.3921 0.5936 10.9596 0.2698 0.2567 -4.8518 -13.5235 -8.9683 -8.7719 15.5416 -12.2682 10.4804 6.0529 -5.5784 6.4512 0.0000 -0.0000 0.0000 -87.1424 -16.6423 47.3967 39.0745 -47.5119 -17.7537 -0.0000 0.0000 -22.8048 14.8792 10.4000 2.7459 -7.1250 0.0000 -0.0000 -10.7049 40.5016 1.2030 0.0000 -0.0000 0.0000 83.4253 14.4789 36.3187 -32.5995 43.0200 -13.1481 0.0000 -0.0000 -3.5581 -14.5266 12.1301 -3.1166 7.1250 -0.0000 -0.0000 8.8265 -17.5505 5.8238
0.3883 15.8910 -1.8002 -0.5603 -1.8715 16.9951 0.0000 0.0000 0.0000 -10.5123 -15.7494 -32.8372 2.7285 10.2420 29.7640 0.1957 1.9682 -9.3204 0.6000 -4.9584 -13.7899 0.0000 0.0000 0.0000 9.0509 20.7372 -33.2507 -3.2672 -11.1155 32.6702 -0.1661 -6.5983 -12.7711 -0.5552 4.7731 -13.2625 -1.6427 0.9069 31.5590 -0.3870 0.6005 10.9093 0.3123 0.2593 -4.9000 -13.4732 -8.9687 -8.8210 15.4615 -12.2498 10.3960 6.0180 -5.5720 6.4217 0.0000 -0.0000 0.0000 -87.1377 -16.6693 47.4636 38.8496 -47.3734 -17.5881 -0.0000 0.0000 -22.7303 14.8555 10.2965 2.7144 -7.1250 0.0000 -0.0000 -10.7042 40.3947 1.2315 0.0000 -0.0000 0.0000 83.3557 14.5406 36.1374 -32.1778 42.6885 -12.8612 0.0000 -0.0000 -3.3036 -14.5978 12.2234 -3.1562 7.1250 -0.0000 -0.0000 8.7760 -17.4509 5.8092
0.3902 15.8835 -1.8033 -0.5216 -1.8731 17.0342 0.0000 0.0000 0.0000 -10.5318 -15.7588 -33.0201 2.7622 10.2998 29.9530 0.2013 1.9023 -9.3951 0.5958 -4.9415 -13.7417 0.0000 0.0000 0.0000 8.9691 20.6994 -33.4671 -3.3080 -11.1778 32.8818 -0.1709 -6.5440 -12.7931 -0.5573 4.7819 -13.2876 -1.6938 0.9061 31.5354 -0.3633 0.5869 10.8425 0.3727 0.2523 -4.9658 -13.4722 -8.9654 -8.8436 15.3935 -12.2277 10.3430 5.9969 -5.5654 6.4008 0.0000 -0.0000 0.0000 -87.1517 -16.6734 47.4740 38.6663 -47.2596 -17.4533 -0.0000 0.0000 -22.6814 14.8443 10.3538 2.7272 -7.1250 0.0000 -0.0000 -10.7256 40.4519 1.2187 0.0000 -0.0000 0.0000 83.2313 14.5678 36.0329 -31.7993 42.3866 -12.6053 0.0000 -0.0000 -3.1753 -14.6457 12.2723 -3.1794 7.1250 -0.0000 -0.0000 8.7423 -17.3979 5.7966
